-vsync is deprecated. Use -fps_mode
Passing a number to -vsync is deprecated, use a string argument as described in the manual.
[h264 @ 0x623b14a73d80] Reinit context to 848x480, pix_fmt: yuv420p
Input #0, mov,mp4,m4a,3gp,3g2,mj2, from '/var/www/html/project/media/video/original/video_2026-03-10_19-04-28.mp4':
  Metadata:
    major_brand     : isom
    minor_version   : 512
    compatible_brands: isomiso2avc1mp41
    creation_time   : 2026-03-10T17:59:39.000000Z
  Duration: 00:00:18.03, start: 0.000000, bitrate: 992 kb/s
  Stream #0:0[0x1](eng): Video: h264 (High), 1 reference frame (avc1 / 0x31637661), yuv420p(progressive, left), 848x480 [SAR 1:1 DAR 53:30], 856 kb/s, 30 fps, 30 tbr, 90k tbn (default)
    Metadata:
      creation_time   : 2026-03-10T17:59:39.000000Z
      handler_name    : VideoHandle
      vendor_id       : [0][0][0][0]
  Stream #0:1[0x2](eng): Audio: aac (LC) (mp4a / 0x6134706D), 44100 Hz, stereo, fltp, 129 kb/s (default)
    Metadata:
      creation_time   : 2026-03-10T17:59:39.000000Z
      handler_name    : SoundHandle
      vendor_id       : [0][0][0][0]
[h264 @ 0x623b14b0d2c0] Reinit context to 1280x720, pix_fmt: yuv420p
Input #1, mov,mp4,m4a,3gp,3g2,mj2, from '/var/www/html/project/static/images/templates/Codino.mp4':
  Metadata:
    major_brand     : mp42
    minor_version   : 1
    compatible_brands: isommp41mp42
    creation_time   : 2021-07-11T07:02:58.000000Z
  Duration: 00:00:02.00, start: 0.000000, bitrate: 1007 kb/s
  Stream #1:0[0x1](ita): Audio: aac (LC) (mp4a / 0x6134706D), 44100 Hz, stereo, fltp, 102 kb/s (default)
    Metadata:
      creation_time   : 2021-07-11T07:02:58.000000Z
      handler_name    : Core Media Audio
      vendor_id       : [0][0][0][0]
  Stream #1:1[0x2](und): Video: h264 (High), 1 reference frame (avc1 / 0x31637661), yuv420p(tv, bt709, progressive, left), 1280x720 [SAR 1:1 DAR 16:9], 813 kb/s, 25 fps, 25 tbr, 25k tbn (default)
    Metadata:
      creation_time   : 2021-07-11T07:02:58.000000Z
      handler_name    : Core Media Video
      vendor_id       : [0][0][0][0]
[out#0/mp4 @ 0x623b167e6c80] Adding streams from explicit maps...
[out#0/mp4 @ 0x623b167e6c80] Creating output stream from an explicitly mapped complex filtergraph 0, output [v]
[vost#0:0/libx264 @ 0x623b167e7a00] Created video stream from complex filtergraph 0:[concat]
[vost#0:0/libx264 @ 0x623b167e7a00] 
[out#0/mp4 @ 0x623b167e6c80] Creating output stream from an explicitly mapped complex filtergraph 0, output [a]
[aost#0:1/aac @ 0x623b167e9400] Created audio stream from complex filtergraph 0:[concat]
[aost#0:1/aac @ 0x623b167e9400] 
Stream mapping:
  Stream #0:0 (h264) -> scale:default
  Stream #0:1 (aac) -> concat
  Stream #1:0 (aac) -> concat
  Stream #1:1 (h264) -> scale:default
  concat -> Stream #0:0 (libx264)
  concat -> Stream #0:1 (aac)
Press [q] to stop, [?] for help
[h264 @ 0x623b14ab55c0] Reinit context to 848x480, pix_fmt: yuv420p
[h264 @ 0x623b15999040] Reinit context to 1280x720, pix_fmt: yuv420p
[Parsed_scale_0 @ 0x623b14a78380] w:1280 h:720 flags:'' interl:0
[Parsed_scale_2 @ 0x623b14a5c9c0] w:1280 h:720 flags:'' interl:0
[graph 0 input from stream 0:0 @ 0x623b14ab2980] w:848 h:480 pixfmt:yuv420p tb:1/90000 fr:30/1 sar:1/1
[graph 0 input from stream 1:1 @ 0x623b14ab2840] w:1280 h:720 pixfmt:yuv420p tb:1/25000 fr:25/1 sar:1/1
[graph_0_in_0_1 @ 0x623b14ab2d00] tb:1/44100 samplefmt:fltp samplerate:44100 chlayout:stereo
[graph_0_in_1_0 @ 0x623b168d7c40] tb:1/44100 samplefmt:fltp samplerate:44100 chlayout:stereo
[Parsed_scale_0 @ 0x623b14a78380] w:848 h:480 fmt:yuv420p sar:1/1 -> w:1280 h:720 fmt:yuv420p sar:159/160 flags:0x00000004
[Parsed_setsar_1 @ 0x623b14a780c0] w:1280 h:720 sar:159/160 dar:53/30 -> sar:1/1 dar:16/9
[Parsed_scale_2 @ 0x623b14a5c9c0] w:1280 h:720 fmt:yuv420p sar:1/1 -> w:1280 h:720 fmt:yuv420p sar:1/1 flags:(null)
[Parsed_setsar_3 @ 0x623b168d6b40] w:1280 h:720 sar:1/1 dar:16/9 -> sar:1/1 dar:16/9
[Parsed_concat_4 @ 0x623b168d6dc0] Video inputs have different frame rates, output will be VFR
[Parsed_scale_2 @ 0x623b14a5c9c0] w:1280 h:720 fmt:yuv420p sar:1/1 -> w:1280 h:720 fmt:yuv420p sar:1/1 flags:(null)
    Last message repeated 2 times
[libx264 @ 0x623b167e7dc0] using SAR=1/1
[libx264 @ 0x623b167e7dc0] MB rate (3600000000) > level limit (16711680)
[libx264 @ 0x623b167e7dc0] using cpu capabilities: MMX2 SSE2Fast SSSE3 SSE4.2 AVX FMA3 BMI2 AVX2
[libx264 @ 0x623b167e7dc0] profile High, level 6.2, 4:2:0, 8-bit
[libx264 @ 0x623b167e7dc0] 264 - core 164 r3108 31e19f9 - H.264/MPEG-4 AVC codec - Copyleft 2003-2023 - http://www.videolan.org/x264.html - options: cabac=1 ref=1 deblock=1:0:0 analyse=0x3:0x113 me=hex subme=2 psy=1 psy_rd=1.00:0.00 mixed_ref=0 me_range=16 chroma_me=1 trellis=0 8x8dct=1 cqm=0 deadzone=21,11 fast_pskip=1 chroma_qp_offset=0 threads=22 lookahead_threads=5 sliced_threads=0 nr=0 decimate=1 interlaced=0 bluray_compat=0 constrained_intra=0 bframes=3 b_pyramid=2 b_adapt=1 b_bias=0 direct=1 weightb=1 open_gop=0 weightp=1 keyint=250 keyint_min=25 scenecut=40 intra_refresh=0 rc_lookahead=10 rc=crf mbtree=1 crf=18.0 qcomp=0.60 qpmin=0 qpmax=69 qpstep=4 ip_ratio=1.40 aq=1:1.00
Output #0, mp4, to '/var/www/html/project/media/video/watermarks/video_2026-03-10_19-04-28.mp4':
  Metadata:
    major_brand     : isom
    minor_version   : 512
    compatible_brands: isomiso2avc1mp41
    encoder         : Lavf60.16.100
  Stream #0:0: Video: h264, 1 reference frame (avc1 / 0x31637661), yuv420p(tv, progressive, left), 1280x720 (0x0) [SAR 1:1 DAR 16:9], q=2-31, 1000k tbn
    Metadata:
      encoder         : Lavc60.31.102 libx264
    Side data:
      cpb: bitrate max/min/avg: 0/0/0 buffer size: 0 vbv_delay: N/A
  Stream #0:1: Audio: aac (LC) (mp4a / 0x6134706D), 44100 Hz, stereo, fltp, delay 1024, 128 kb/s
    Metadata:
      encoder         : Lavc60.31.102 aac
[in#0/mov,mp4,m4a,3gp,3g2,mj2 @ 0x623b14a731c0] EOF while reading input
[in#0/mov,mp4,m4a,3gp,3g2,mj2 @ 0x623b14a731c0] Terminating demuxer thread
[vist#0:0/h264 @ 0x623b14a74840] Decoder thread received EOF packet
[vist#0:0/h264 @ 0x623b14a74840] Decoder returned EOF, finishing
[vist#0:0/h264 @ 0x623b14a74840] Terminating decoder thread
[Parsed_concat_4 @ 0x623b168d6dc0] EOF on in0:v0, 1 streams left in segment.
[aist#0:1/aac @ 0x623b14ac4b40] Decoder thread received EOF packet
[aist#0:1/aac @ 0x623b14ac4b40] Decoder returned EOF, finishing
[aist#0:1/aac @ 0x623b14ac4b40] Terminating decoder thread
[Parsed_concat_4 @ 0x623b168d6dc0] EOF on in0:a0, 0 streams left in segment.
[Parsed_concat_4 @ 0x623b168d6dc0] Segment finished at pts=18033144
[in#1/mov,mp4,m4a,3gp,3g2,mj2 @ 0x623b14a76080] EOF while reading input
[in#1/mov,mp4,m4a,3gp,3g2,mj2 @ 0x623b14a76080] Terminating demuxer thread
[aist#1:0/aac @ 0x623b14abf8c0] Decoder thread received EOF packet
[aist#1:0/aac @ 0x623b14abf8c0] Decoder returned EOF, finishing
[aist#1:0/aac @ 0x623b14abf8c0] Terminating decoder thread
[Parsed_concat_4 @ 0x623b168d6dc0] EOF on in1:a0, 1 streams left in segment.
[vist#1:1/h264 @ 0x623b14a765c0] Decoder thread received EOF packet
[vist#1:1/h264 @ 0x623b14a765c0] Decoder returned EOF, finishing
[vist#1:1/h264 @ 0x623b14a765c0] Terminating decoder thread
[Parsed_concat_4 @ 0x623b168d6dc0] EOF on in1:v0, 0 streams left in segment.
[Parsed_concat_4 @ 0x623b168d6dc0] Segment finished at pts=20051829
No more output streams to write to, finishing.
[out#0/mp4 @ 0x623b167e6c80] All streams finished
[out#0/mp4 @ 0x623b167e6c80] Terminating muxer thread
[AVIOContext @ 0x623b168b4780] Statistics: 9010883 bytes written, 2 seeks, 38 writeouts
[out#0/mp4 @ 0x623b167e6c80] Output file #0 (/var/www/html/project/media/video/watermarks/video_2026-03-10_19-04-28.mp4):
[out#0/mp4 @ 0x623b167e6c80]   Output stream #0:0 (video): 591 frames encoded; 591 packets muxed (8670950 bytes); 
[out#0/mp4 @ 0x623b167e6c80]   Output stream #0:1 (audio): 864 frames encoded (884286 samples); 865 packets muxed (314285 bytes); 
[out#0/mp4 @ 0x623b167e6c80]   Total: 1456 packets (8985235 bytes) muxed
[out#0/mp4 @ 0x623b167e6c80] video:8468kB audio:307kB subtitle:0kB other streams:0kB global headers:0kB muxing overhead: 0.285402%
frame=  591 fps=217 q=-1.0 Lsize=    8800kB time=00:00:20.03 bitrate=3597.4kbits/s speed=7.35x    
[AVIOContext @ 0x623b14a6aac0] Statistics: 1401 bytes written, 0 seeks, 7 writeouts
[libx264 @ 0x623b167e7dc0] frame I:6     Avg QP:14.62  size:114678
[libx264 @ 0x623b167e7dc0] frame P:192   Avg QP:18.42  size: 29314
[libx264 @ 0x623b167e7dc0] frame B:393   Avg QP:22.56  size:  5990
[libx264 @ 0x623b167e7dc0] consecutive B-frames:  4.1% 20.6%  3.6% 71.7%
[libx264 @ 0x623b167e7dc0] mb I  I16..4: 20.5% 12.8% 66.7%
[libx264 @ 0x623b167e7dc0] mb P  I16..4:  3.1%  5.6%  1.5%  P16..4: 31.5% 21.4% 16.2%  0.0%  0.0%    skip:20.7%
[libx264 @ 0x623b167e7dc0] mb B  I16..4:  0.4%  0.3%  0.0%  B16..8: 15.6%  7.8%  1.6%  direct:10.0%  skip:64.2%  L0:33.7% L1:39.7% BI:26.6%
[libx264 @ 0x623b167e7dc0] 8x8 transform intra:44.8% inter:33.8%
[libx264 @ 0x623b167e7dc0] coded y,uvDC,uvAC intra: 55.4% 58.5% 26.9% inter: 16.8% 12.9% 1.4%
[libx264 @ 0x623b167e7dc0] i16 v,h,dc,p: 51% 29% 12%  7%
[libx264 @ 0x623b167e7dc0] i8 v,h,dc,ddl,ddr,vr,hd,vl,hu: 30% 30% 16%  3%  4%  4%  5%  4%  4%
[libx264 @ 0x623b167e7dc0] i4 v,h,dc,ddl,ddr,vr,hd,vl,hu: 24% 23% 10%  6%  8%  7%  8%  6%  8%
[libx264 @ 0x623b167e7dc0] i8c dc,h,v,p: 50% 21% 24%  5%
[libx264 @ 0x623b167e7dc0] Weighted P-Frames: Y:9.9% UV:0.0%
[libx264 @ 0x623b167e7dc0] kb/s:3462.37
[aac @ 0x623b167e97c0] Qavg: 2852.695
[in#0/mov,mp4,m4a,3gp,3g2,mj2 @ 0x623b14a731c0] Input file #0 (/var/www/html/project/media/video/original/video_2026-03-10_19-04-28.mp4):
[in#0/mov,mp4,m4a,3gp,3g2,mj2 @ 0x623b14a731c0]   Input stream #0:0 (video): 541 packets read (1931782 bytes); 541 frames decoded; 0 decode errors; 
[in#0/mov,mp4,m4a,3gp,3g2,mj2 @ 0x623b14a731c0]   Input stream #0:1 (audio): 776 packets read (291584 bytes); 776 frames decoded; 0 decode errors (794624 samples); 
[in#0/mov,mp4,m4a,3gp,3g2,mj2 @ 0x623b14a731c0]   Total: 1317 packets (2223366 bytes) demuxed
[AVIOContext @ 0x623b14a73580] Statistics: 2281932 bytes read, 2 seeks
[in#1/mov,mp4,m4a,3gp,3g2,mj2 @ 0x623b14a76080] Input file #1 (/var/www/html/project/static/images/templates/Codino.mp4):
[in#1/mov,mp4,m4a,3gp,3g2,mj2 @ 0x623b14a76080]   Input stream #1:0 (audio): 89 packets read (26579 bytes); 87 frames decoded; 0 decode errors (89024 samples); 
[in#1/mov,mp4,m4a,3gp,3g2,mj2 @ 0x623b14a76080]   Input stream #1:1 (video): 50 packets read (203365 bytes); 50 frames decoded; 0 decode errors; 
[in#1/mov,mp4,m4a,3gp,3g2,mj2 @ 0x623b14a76080]   Total: 139 packets (229944 bytes) demuxed
[AVIOContext @ 0x623b14ac4080] Statistics: 1629219 bytes read, 37 seeks
